<?xml version="1.0" encoding="utf-8"?>
<!-- Generator: Adobe Illustrator 19.2.1, SVG Export Plug-In . SVG Version: 6.00 Build 0)  -->
<svg version="1.1" id="layer" xmlns="http://www.w3.org/2000/svg" xmlns:xlink="http://www.w3.org/1999/xlink" x="0px" y="0px"
	 viewBox="0 0 652 652" style="enable-background:new 0 0 652 652;" xml:space="preserve">
<style type="text/css">
	.st0{fill:#EF7701;}
	.st1{fill:#54504D;}
</style>
<path class="st0" d="M632,71.8c-21.9,0-39.6,16.8-39.6,37.6c0,6.5,1.7,12.6,4.8,17.9c-3.9,1.9-13.1,6.2-26,12.6
	c-4.8-9.3-14.8-15.7-26.5-15.7c-16.3,0-29.5,12.5-29.5,28c0,5.2,1.5,10,4.1,14.1c-6.6,3.5-13.5,7.1-20.5,10.9
	c-4.1-6-11.3-9.9-19.4-9.9c-12.8,0-23.2,9.8-23.2,22c0,3.6,0.9,7,2.5,10c-7.3,4.1-14.6,8.4-22,12.7c-2.9-2.4-6.7-3.8-10.9-3.8
	c-9.3,0-16.9,7.2-16.9,16.1c0,1.4,0.2,2.8,0.6,4.1c-29.6,18.3-57.9,37.4-80.9,56c-26.7-56.8-66.2-119.1-121.1-169.8
	c-0.1,0-0.1-0.1-0.2-0.1c-6.4-6-11.7-3.4-4.4,4.1c0.1,0.1,0.2,0.2,0.3,0.3c46.6,47.6,83.2,116.5,108.1,179.3
	c-94.6,76.7-198.9,225.3-84.6,272c16.6,6.8,24.2-6.2,17.1-10.2c-1.3-0.7-52.2-26.8-19.8-107.1h81.5c4.4,0,7.9-3.4,7.9-7.5
	c0-4.1-3.5-7.5-7.9-7.5H231c4.4-8.9,9.7-18.3,16.1-28.4h58.6c4.4,0,7.9-3.4,7.9-7.5c0-4.1-3.5-7.5-7.9-7.5h-48.5
	c6-8.6,12.8-17.6,20.5-27h28.1c4.4,0,7.9-3.4,7.9-7.5c0-4.1-3.5-7.5-7.9-7.5h-15.5c8.9-10.3,18.6-21,29.4-32.2
	c0.1-0.1,0.2-0.2,0.3-0.3c21.5,59.1,31.9,109.4,29.6,126.2c-1.2,9.1-7.5,13-10,14.1c-4,1.8-5.6,7,0.6,8.8
	c20,5.6,32.3-13.3,34.6-28.4c2.2-15.3-8.7-71.2-37.6-137.8c24.2-22.8,52-44.6,80.4-64.6c2.5,1.4,5.4,2.2,8.4,2.2
	c9.3,0,16.9-7.2,16.9-16.1c0-1.1-0.1-2.1-0.3-3.2c7.6-5,15.1-9.9,22.5-14.5c4,3,9,4.8,14.4,4.8c12.8,0,23.2-9.8,23.2-22
	c0-1.8-0.3-3.6-0.7-5.3c7.4-4.4,14.6-8.5,21.5-12.5c5.4,5.3,12.9,8.7,21.3,8.7c16.3,0,29.5-12.5,29.5-28c0-2.7-0.4-5.3-1.2-7.8
	c12.6-6.7,21.8-11.3,26.2-13.8c7.1,9.9,19.1,16.4,32.7,16.4c21.9,0,39.6-16.8,39.6-37.6C671.6,88.6,653.9,71.8,632,71.8"/>
<path class="st1" d="M181.6,372.5c1.5-3,2.7-6.3,4.2-10.3c1.5-3.7,3-8.4,4.2-13.8l15-61.8c1.2-6.3,2.2-11,2.5-13.8
	c0.5-2.1,0.5-4.4,0.5-7.5v-2.8h34l-20.5,85.9c-1.5,6.1-2.5,10.8-3,14c-0.7,3.5-0.7,6.8-0.7,10.1H181.6z M103.6,356.6
	c-5.4,1.2-12.1,1.9-19.2,1.9h-74c-3.5,0-5.7-0.7-6.4-2.1c-0.5-0.5-0.5-1.4-0.5-2.6c0-1.2,0.2-3.1,0.7-5.4L9.7,326H111l8.1-34.4
	c1.2-4.4,1.7-8.2,1.7-11.7c0-4.7-1-8.2-3.2-10.8c-3.4-4.4-10.3-6.5-20.9-6.5H22.3c-10.4,0-18,2.1-23.7,6.5
	c-5.4,4.5-9.4,11.9-12.1,22.5l-12.6,52c-1.2,4.7-1.7,8.7-1.7,11.9c0,4.5,1,8,3,10.5c3.7,4.4,10.6,6.6,20.7,6.6H96.7L103.6,356.6z
	 M82.7,311.9H13.1l6.2-25.3c0.5-4,1.7-6.5,3.4-8c1.5-1.4,4-2.1,7.4-2.1h52.3c3.5,0,5.9,0.7,6.9,2.1c0.2,0.7,0.5,1.4,0.5,2.3
	c0,1.4-0.2,3.5-1,5.6L82.7,311.9z M160.3,372.5c0-3.7,0-7.3,0.8-11.3c0.5-3.7,1.6-8.9,3.1-15.8l32.2-140.9h-36.1
	c0,4.7-0.3,8.7-0.5,11.5c-0.5,3.1-1.6,8.4-3.1,15.5l-25.9,113.9c-1.3,6-2.9,11.3-4.4,15.5c-1.6,4.5-2.9,8.1-4.4,11.5H160.3z
	 M414.5,372.5c0-3.3,0-6.6,0.7-10.1c0.5-3.3,1.5-8,3-14l20.5-85.9h-34v2.8c0,3,0,5.4-0.5,7.5c-0.2,2.8-1.2,7.5-2.5,13.8l-15.1,61.8
	c-1.2,5.4-2.7,10.1-4.2,13.8c-1.5,4-2.7,7.3-4.2,10.3H414.5z M537.8,281c3.7,0.2,7.7,0.7,12.1,1.2c0.7,0,2-0.9,3.7-3
	c1.5-1.9,2.7-3.3,4.2-4.5l-7.1-12.2h-29.6c-5.7,0-9.9,0.9-13.1,2.8c-3.2,1.9-5.7,4.7-7.6,8.4l1.2-11.2h-30.3c0,3.3,0,6.5-0.5,9.8
	c-0.7,3.5-1.5,8.2-3.2,14.3l-14.8,61.8c-1.7,6.3-3,11-3.9,14c-1,3.3-2.5,6.6-3.9,10.1h36V370c0-5.4,1-12.4,3.4-21.5l13.8-58.7
	c1-3.5,2.2-5.8,4.2-7.3c1.5-1.2,4.2-1.9,7.4-1.9h16.5C530.4,280.6,534.1,280.8,537.8,281 M247.7,224.1c0-8.8-7.5-15.8-16.7-15.8
	c-9.2,0-16.7,7.1-16.7,15.8c0,8.7,7.5,15.8,16.7,15.8C240.2,239.9,247.7,232.8,247.7,224.1"/>
</svg>
